<svg width="446" height="305" viewBox="0 0 446 305" fill="none" xmlns="http://www.w3.org/2000/svg">
<rect x="341.172" y="145" width="5.51724" height="5.51724" fill="white"/>
<rect x="368.759" y="145" width="5.51724" height="5.51724" fill="white"/>
<rect x="374.276" y="145" width="5.51724" height="5.51724" fill="white"/>
<rect x="385.31" y="145" width="5.51724" height="5.51724" fill="white"/>
<rect x="330.138" y="150.517" width="5.51724" height="5.51724" fill="white"/>
<rect x="335.655" y="150.517" width="5.51724" height="5.51724" fill="white"/>
<rect x="346.69" y="150.517" width="5.51724" height="5.51724" fill="white"/>
<rect x="352.207" y="150.517" width="5.51724" height="5.51724" fill="white"/>
<rect x="357.724" y="150.517" width="5.51724" height="5.51724" fill="white"/>
<rect x="363.241" y="150.517" width="5.51724" height="5.51724" fill="white"/>
<rect x="374.276" y="150.517" width="5.51724" height="5.51724" fill="white"/>
<rect x="379.793" y="150.517" width="5.51724" height="5.51724" fill="white"/>
<rect x="396.345" y="150.517" width="5.51724" height="5.51724" fill="white"/>
<rect x="330.138" y="156.034" width="5.51724" height="5.51724" fill="white"/>
<rect x="335.655" y="156.034" width="5.51724" height="5.51724" fill="white"/>
<rect x="341.172" y="156.034" width="5.51724" height="5.51724" fill="white"/>
<rect x="352.207" y="156.034" width="5.51724" height="5.51724" fill="white"/>
<rect x="357.724" y="156.034" width="5.51724" height="5.51724" fill="white"/>
<rect x="368.759" y="156.034" width="5.51724" height="5.51724" fill="white"/>
<rect x="385.31" y="156.034" width="5.51724" height="5.51724" fill="white"/>
<rect x="396.345" y="156.034" width="5.51724" height="5.51724" fill="white"/>
<rect x="330.138" y="161.552" width="5.51724" height="5.51724" fill="white"/>
<rect x="335.655" y="161.552" width="5.51724" height="5.51724" fill="white"/>
<rect x="346.69" y="161.552" width="5.51724" height="5.51724" fill="white"/>
<rect x="374.276" y="161.552" width="5.51724" height="5.51724" fill="white"/>
<rect x="379.793" y="161.552" width="5.51724" height="5.51724" fill="white"/>
<rect x="396.345" y="161.552" width="5.51724" height="5.51724" fill="white"/>
<rect x="335.655" y="167.069" width="5.51724" height="5.51724" fill="white"/>
<rect x="368.759" y="167.069" width="5.51724" height="5.51724" fill="white"/>
<rect x="374.276" y="167.069" width="5.51724" height="5.51724" fill="white"/>
<rect x="390.828" y="167.069" width="5.51724" height="5.51724" fill="white"/>
<rect x="396.345" y="167.069" width="5.51724" height="5.51724" fill="white"/>
<rect x="335.655" y="172.586" width="5.51724" height="5.51724" fill="white"/>
<rect x="352.207" y="172.586" width="5.51724" height="5.51724" fill="white"/>
<rect x="368.759" y="172.586" width="5.51724" height="5.51724" fill="white"/>
<rect x="396.345" y="172.586" width="5.51724" height="5.51724" fill="white"/>
<rect x="330.138" y="178.103" width="5.51724" height="5.51724" fill="white"/>
<rect x="341.172" y="178.103" width="5.51724" height="5.51724" fill="white"/>
<rect x="352.207" y="178.103" width="5.51724" height="5.51724" fill="white"/>
<rect x="363.241" y="178.103" width="5.51724" height="5.51724" fill="white"/>
<rect x="374.276" y="178.103" width="5.51724" height="5.51724" fill="white"/>
<rect x="385.31" y="178.103" width="5.51724" height="5.51724" fill="white"/>
<rect x="396.345" y="178.103" width="5.51724" height="5.51724" fill="white"/>
<rect x="330.138" y="183.621" width="5.51724" height="5.51724" fill="white"/>
<rect x="346.69" y="183.621" width="5.51724" height="5.51724" fill="white"/>
<rect x="363.241" y="183.621" width="5.51724" height="5.51724" fill="white"/>
<rect x="368.759" y="183.621" width="5.51724" height="5.51724" fill="white"/>
<rect x="374.276" y="183.621" width="5.51724" height="5.51724" fill="white"/>
<rect x="385.31" y="183.621" width="5.51724" height="5.51724" fill="white"/>
<rect x="396.345" y="183.621" width="5.51724" height="5.51724" fill="white"/>
<rect x="286" y="189.138" width="5.51724" height="5.51724" fill="white"/>
<rect x="319.103" y="189.138" width="5.51724" height="5.51724" fill="white"/>
<rect x="330.138" y="189.138" width="5.51724" height="5.51724" fill="white"/>
<rect x="341.172" y="189.138" width="5.51724" height="5.51724" fill="white"/>
<rect x="374.276" y="189.138" width="5.51724" height="5.51724" fill="white"/>
<rect x="379.793" y="189.138" width="5.51724" height="5.51724" fill="white"/>
<rect x="390.828" y="189.138" width="5.51724" height="5.51724" fill="white"/>
<rect x="401.862" y="189.138" width="5.51724" height="5.51724" fill="white"/>
<rect x="407.379" y="189.138" width="5.51724" height="5.51724" fill="white"/>
<rect x="423.931" y="189.138" width="5.51724" height="5.51724" fill="white"/>
<rect x="429.448" y="189.138" width="5.51724" height="5.51724" fill="white"/>
<rect x="434.966" y="189.138" width="5.51724" height="5.51724" fill="white"/>
<rect x="286" y="194.655" width="5.51724" height="5.51724" fill="white"/>
<rect x="297.034" y="194.655" width="5.51724" height="5.51724" fill="white"/>
<rect x="313.586" y="194.655" width="5.51724" height="5.51724" fill="white"/>
<rect x="357.724" y="194.655" width="5.51724" height="5.51724" fill="white"/>
<rect x="374.276" y="194.655" width="5.51724" height="5.51724" fill="white"/>
<rect x="379.793" y="194.655" width="5.51724" height="5.51724" fill="white"/>
<rect x="385.31" y="194.655" width="5.51724" height="5.51724" fill="white"/>
<rect x="390.828" y="194.655" width="5.51724" height="5.51724" fill="white"/>
<rect x="412.897" y="194.655" width="5.51724" height="5.51724" fill="white"/>
<rect x="418.414" y="194.655" width="5.51724" height="5.51724" fill="white"/>
<rect x="429.448" y="194.655" width="5.51724" height="5.51724" fill="white"/>
<rect x="434.966" y="194.655" width="5.51724" height="5.51724" fill="white"/>
<rect x="291.517" y="200.172" width="5.51724" height="5.51724" fill="white"/>
<rect x="297.034" y="200.172" width="5.51724" height="5.51724" fill="white"/>
<rect x="302.552" y="200.172" width="5.51724" height="5.51724" fill="white"/>
<rect x="308.069" y="200.172" width="5.51724" height="5.51724" fill="white"/>
<rect x="319.103" y="200.172" width="5.51724" height="5.51724" fill="white"/>
<rect x="324.621" y="200.172" width="5.51724" height="5.51724" fill="white"/>
<rect x="330.138" y="200.172" width="5.51724" height="5.51724" fill="white"/>
<rect x="335.655" y="200.172" width="5.51724" height="5.51724" fill="white"/>
<rect x="352.207" y="200.172" width="5.51724" height="5.51724" fill="white"/>
<rect x="357.724" y="200.172" width="5.51724" height="5.51724" fill="white"/>
<rect x="363.241" y="200.172" width="5.51724" height="5.51724" fill="white"/>
<rect x="368.759" y="200.172" width="5.51724" height="5.51724" fill="white"/>
<rect x="374.276" y="200.172" width="5.51724" height="5.51724" fill="white"/>
<rect x="379.793" y="200.172" width="5.51724" height="5.51724" fill="white"/>
<rect x="286" y="205.69" width="5.51724" height="5.51724" fill="white"/>
<rect x="297.034" y="205.69" width="5.51724" height="5.51724" fill="white"/>
<rect x="313.586" y="205.69" width="5.51724" height="5.51724" fill="white"/>
<rect x="324.621" y="205.69" width="5.51724" height="5.51724" fill="white"/>
<rect x="330.138" y="205.69" width="5.51724" height="5.51724" fill="white"/>
<rect x="335.655" y="205.69" width="5.51724" height="5.51724" fill="white"/>
<rect x="341.172" y="205.69" width="5.51724" height="5.51724" fill="white"/>
<rect x="352.207" y="205.69" width="5.51724" height="5.51724" fill="white"/>
<rect x="357.724" y="205.69" width="5.51724" height="5.51724" fill="white"/>
<rect x="396.345" y="205.69" width="5.51724" height="5.51724" fill="white"/>
<rect x="407.379" y="205.69" width="5.51724" height="5.51724" fill="white"/>
<rect x="412.897" y="205.69" width="5.51724" height="5.51724" fill="white"/>
<rect x="423.931" y="205.69" width="5.51724" height="5.51724" fill="white"/>
<rect x="291.517" y="211.207" width="5.51724" height="5.51724" fill="white"/>
<rect x="313.586" y="211.207" width="5.51724" height="5.51724" fill="white"/>
<rect x="319.103" y="211.207" width="5.51724" height="5.51724" fill="white"/>
<rect x="330.138" y="211.207" width="5.51724" height="5.51724" fill="white"/>
<rect x="341.172" y="211.207" width="5.51724" height="5.51724" fill="white"/>
<rect x="357.724" y="211.207" width="5.51724" height="5.51724" fill="white"/>
<rect x="368.759" y="211.207" width="5.51724" height="5.51724" fill="white"/>
<rect x="374.276" y="211.207" width="5.51724" height="5.51724" fill="white"/>
<rect x="390.828" y="211.207" width="5.51724" height="5.51724" fill="white"/>
<rect x="396.345" y="211.207" width="5.51724" height="5.51724" fill="white"/>
<rect x="407.379" y="211.207" width="5.51724" height="5.51724" fill="white"/>
<rect x="412.897" y="211.207" width="5.51724" height="5.51724" fill="white"/>
<rect x="440.483" y="211.207" width="5.51724" height="5.51724" fill="white"/>
<rect x="297.034" y="216.724" width="5.51724" height="5.51724" fill="white"/>
<rect x="308.069" y="216.724" width="5.51724" height="5.51724" fill="white"/>
<rect x="324.621" y="216.724" width="5.51724" height="5.51724" fill="white"/>
<rect x="335.655" y="216.724" width="5.51724" height="5.51724" fill="white"/>
<rect x="341.172" y="216.724" width="5.51724" height="5.51724" fill="white"/>
<rect x="374.276" y="216.724" width="5.51724" height="5.51724" fill="white"/>
<rect x="390.828" y="216.724" width="5.51724" height="5.51724" fill="white"/>
<rect x="396.345" y="216.724" width="5.51724" height="5.51724" fill="white"/>
<rect x="401.862" y="216.724" width="5.51724" height="5.51724" fill="white"/>
<rect x="407.379" y="216.724" width="5.51724" height="5.51724" fill="white"/>
<rect x="418.414" y="216.724" width="5.51724" height="5.51724" fill="white"/>
<rect x="434.966" y="216.724" width="5.51724" height="5.51724" fill="white"/>
<rect x="440.483" y="216.724" width="5.51724" height="5.51724" fill="white"/>
<rect x="286" y="222.241" width="5.51724" height="5.51724" fill="white"/>
<rect x="291.517" y="222.241" width="5.51724" height="5.51724" fill="white"/>
<rect x="308.069" y="222.241" width="5.51724" height="5.51724" fill="white"/>
<rect x="319.103" y="222.241" width="5.51724" height="5.51724" fill="white"/>
<rect x="330.138" y="222.241" width="5.51724" height="5.51724" fill="white"/>
<rect x="335.655" y="222.241" width="5.51724" height="5.51724" fill="white"/>
<rect x="379.793" y="222.241" width="5.51724" height="5.51724" fill="white"/>
<rect x="385.31" y="222.241" width="5.51724" height="5.51724" fill="white"/>
<rect x="401.862" y="222.241" width="5.51724" height="5.51724" fill="white"/>
<rect x="412.897" y="222.241" width="5.51724" height="5.51724" fill="white"/>
<rect x="423.931" y="222.241" width="5.51724" height="5.51724" fill="white"/>
<rect x="429.448" y="222.241" width="5.51724" height="5.51724" fill="white"/>
<rect x="330.138" y="227.759" width="5.51724" height="5.51724" fill="white"/>
<rect x="335.655" y="227.759" width="5.51724" height="5.51724" fill="white"/>
<rect width="5.51724" height="5.51724" fill="white"/>
<rect x="368.759" y="227.759" width="5.51724" height="5.51724" fill="white"/>
<rect x="385.31" y="227.759" width="5.51724" height="5.51724" fill="white"/>
<rect x="390.828" y="227.759" width="5.51724" height="5.51724" fill="white"/>
<rect x="412.897" y="227.759" width="5.51724" height="5.51724" fill="white"/>
<rect x="418.414" y="227.759" width="5.51724" height="5.51724" fill="white"/>
<rect x="429.448" y="227.759" width="5.51724" height="5.51724" fill="white"/>
<rect x="440.483" y="227.759" width="5.51724" height="5.51724" fill="white"/>
<rect x="286" y="233.276" width="5.51724" height="5.51724" fill="white"/>
<rect x="308.069" y="233.276" width="5.51724" height="5.51724" fill="white"/>
<rect x="313.586" y="233.276" width="5.51724" height="5.51724" fill="white"/>
<rect x="319.103" y="233.276" width="5.51724" height="5.51724" fill="white"/>
<rect x="346.69" y="233.276" width="5.51724" height="5.51724" fill="white"/>
<rect x="374.276" y="233.276" width="5.51724" height="5.51724" fill="white"/>
<rect x="379.793" y="233.276" width="5.51724" height="5.51724" fill="white"/>
<rect x="385.31" y="233.276" width="5.51724" height="5.51724" fill="white"/>
<rect x="390.828" y="233.276" width="5.51724" height="5.51724" fill="white"/>
<rect x="412.897" y="233.276" width="5.51724" height="5.51724" fill="white"/>
<rect x="423.931" y="233.276" width="5.51724" height="5.51724" fill="white"/>
<rect x="429.448" y="233.276" width="5.51724" height="5.51724" fill="white"/>
<rect x="286" y="238.793" width="5.51724" height="5.51724" fill="white"/>
<rect x="324.621" y="238.793" width="5.51724" height="5.51724" fill="white"/>
<rect x="330.138" y="238.793" width="5.51724" height="5.51724" fill="white"/>
<rect x="335.655" y="238.793" width="5.51724" height="5.51724" fill="white"/>
<rect x="346.69" y="238.793" width="5.51724" height="5.51724" fill="white"/>
<rect x="357.724" y="238.793" width="5.51724" height="5.51724" fill="white"/>
<rect x="363.241" y="238.793" width="5.51724" height="5.51724" fill="white"/>
<rect x="379.793" y="238.793" width="5.51724" height="5.51724" fill="white"/>
<rect x="385.31" y="238.793" width="5.51724" height="5.51724" fill="white"/>
<rect x="390.828" y="238.793" width="5.51724" height="5.51724" fill="white"/>
<rect x="396.345" y="238.793" width="5.51724" height="5.51724" fill="white"/>
<rect x="407.379" y="238.793" width="5.51724" height="5.51724" fill="white"/>
<rect x="412.897" y="238.793" width="5.51724" height="5.51724" fill="white"/>
<rect x="418.414" y="238.793" width="5.51724" height="5.51724" fill="white"/>
<rect x="429.448" y="238.793" width="5.51724" height="5.51724" fill="white"/>
<rect x="434.966" y="238.793" width="5.51724" height="5.51724" fill="white"/>
<rect x="440.483" y="238.793" width="5.51724" height="5.51724" fill="white"/>
<rect x="286" y="244.31" width="5.51724" height="5.51724" fill="white"/>
<rect x="291.517" y="244.31" width="5.51724" height="5.51724" fill="white"/>
<rect x="302.552" y="244.31" width="5.51724" height="5.51724" fill="white"/>
<rect x="308.069" y="244.31" width="5.51724" height="5.51724" fill="white"/>
<rect x="313.586" y="244.31" width="5.51724" height="5.51724" fill="white"/>
<rect x="319.103" y="244.31" width="5.51724" height="5.51724" fill="white"/>
<rect x="330.138" y="244.31" width="5.51724" height="5.51724" fill="white"/>
<rect x="335.655" y="244.31" width="5.51724" height="5.51724" fill="white"/>
<rect x="346.69" y="244.31" width="5.51724" height="5.51724" fill="white"/>
<rect x="368.759" y="244.31" width="5.51724" height="5.51724" fill="white"/>
<rect x="390.828" y="244.31" width="5.51724" height="5.51724" fill="white"/>
<rect x="423.931" y="244.31" width="5.51724" height="5.51724" fill="white"/>
<rect x="440.483" y="244.31" width="5.51724" height="5.51724" fill="white"/>
<rect x="286" y="249.828" width="5.51724" height="5.51724" fill="white"/>
<rect x="297.034" y="249.828" width="5.51724" height="5.51724" fill="white"/>
<rect x="302.552" y="249.828" width="5.51724" height="5.51724" fill="white"/>
<rect x="313.586" y="249.828" width="5.51724" height="5.51724" fill="white"/>
<rect x="335.655" y="249.828" width="5.51724" height="5.51724" fill="white"/>
<rect x="341.172" y="249.828" width="5.51724" height="5.51724" fill="white"/>
<rect x="352.207" y="249.828" width="5.51724" height="5.51724" fill="white"/>
<rect x="357.724" y="249.828" width="5.51724" height="5.51724" fill="white"/>
<rect x="385.31" y="249.828" width="5.51724" height="5.51724" fill="white"/>
<rect x="396.345" y="249.828" width="5.51724" height="5.51724" fill="white"/>
<rect x="401.862" y="249.828" width="5.51724" height="5.51724" fill="white"/>
<rect x="407.379" y="249.828" width="5.51724" height="5.51724" fill="white"/>
<rect x="412.897" y="249.828" width="5.51724" height="5.51724" fill="white"/>
<rect x="418.414" y="249.828" width="5.51724" height="5.51724" fill="white"/>
<rect x="286" y="255.345" width="5.51724" height="5.51724" fill="white"/>
<rect x="308.069" y="255.345" width="5.51724" height="5.51724" fill="white"/>
<rect x="319.103" y="255.345" width="5.51724" height="5.51724" fill="white"/>
<rect x="324.621" y="255.345" width="5.51724" height="5.51724" fill="white"/>
<rect x="335.655" y="255.345" width="5.51724" height="5.51724" fill="white"/>
<rect x="346.69" y="255.345" width="5.51724" height="5.51724" fill="white"/>
<rect x="363.241" y="255.345" width="5.51724" height="5.51724" fill="white"/>
<rect x="368.759" y="255.345" width="5.51724" height="5.51724" fill="white"/>
<rect x="379.793" y="255.345" width="5.51724" height="5.51724" fill="white"/>
<rect x="396.345" y="255.345" width="5.51724" height="5.51724" fill="white"/>
<rect x="401.862" y="255.345" width="5.51724" height="5.51724" fill="white"/>
<rect x="407.379" y="255.345" width="5.51724" height="5.51724" fill="white"/>
<rect x="412.897" y="255.345" width="5.51724" height="5.51724" fill="white"/>
<rect x="418.414" y="255.345" width="5.51724" height="5.51724" fill="white"/>
<rect x="429.448" y="255.345" width="5.51724" height="5.51724" fill="white"/>
<rect x="434.966" y="255.345" width="5.51724" height="5.51724" fill="white"/>
<rect x="440.483" y="255.345" width="5.51724" height="5.51724" fill="white"/>
<rect x="330.138" y="260.862" width="5.51724" height="5.51724" fill="white"/>
<rect x="335.655" y="260.862" width="5.51724" height="5.51724" fill="white"/>
<rect x="341.172" y="260.862" width="5.51724" height="5.51724" fill="white"/>
<rect x="363.241" y="260.862" width="5.51724" height="5.51724" fill="white"/>
<rect x="379.793" y="260.862" width="5.51724" height="5.51724" fill="white"/>
<rect x="385.31" y="260.862" width="5.51724" height="5.51724" fill="white"/>
<rect x="396.345" y="260.862" width="5.51724" height="5.51724" fill="white"/>
<rect x="418.414" y="260.862" width="5.51724" height="5.51724" fill="white"/>
<rect x="423.931" y="260.862" width="5.51724" height="5.51724" fill="white"/>
<rect x="352.207" y="266.379" width="5.51724" height="5.51724" fill="white"/>
<rect x="385.31" y="266.379" width="5.51724" height="5.51724" fill="white"/>
<rect x="390.828" y="266.379" width="5.51724" height="5.51724" fill="white"/>
<rect x="396.345" y="266.379" width="5.51724" height="5.51724" fill="white"/>
<rect x="407.379" y="266.379" width="5.51724" height="5.51724" fill="white"/>
<rect x="418.414" y="266.379" width="5.51724" height="5.51724" fill="white"/>
<rect x="423.931" y="266.379" width="5.51724" height="5.51724" fill="white"/>
<rect x="429.448" y="266.379" width="5.51724" height="5.51724" fill="white"/>
<rect x="341.172" y="271.897" width="5.51724" height="5.51724" fill="white"/>
<rect x="346.69" y="271.897" width="5.51724" height="5.51724" fill="white"/>
<rect x="363.241" y="271.897" width="5.51724" height="5.51724" fill="white"/>
<rect x="368.759" y="271.897" width="5.51724" height="5.51724" fill="white"/>
<rect x="374.276" y="271.897" width="5.51724" height="5.51724" fill="white"/>
<rect x="390.828" y="271.897" width="5.51724" height="5.51724" fill="white"/>
<rect x="396.345" y="271.897" width="5.51724" height="5.51724" fill="white"/>
<rect x="418.414" y="271.897" width="5.51724" height="5.51724" fill="white"/>
<rect x="440.483" y="271.897" width="5.51724" height="5.51724" fill="white"/>
<rect x="352.207" y="277.414" width="5.51724" height="5.51724" fill="white"/>
<rect x="357.724" y="277.414" width="5.51724" height="5.51724" fill="white"/>
<rect x="363.241" y="277.414" width="5.51724" height="5.51724" fill="white"/>
<rect x="374.276" y="277.414" width="5.51724" height="5.51724" fill="white"/>
<rect x="390.828" y="277.414" width="5.51724" height="5.51724" fill="white"/>
<rect x="396.345" y="277.414" width="5.51724" height="5.51724" fill="white"/>
<rect x="401.862" y="277.414" width="5.51724" height="5.51724" fill="white"/>
<rect x="407.379" y="277.414" width="5.51724" height="5.51724" fill="white"/>
<rect x="412.897" y="277.414" width="5.51724" height="5.51724" fill="white"/>
<rect x="418.414" y="277.414" width="5.51724" height="5.51724" fill="white"/>
<rect x="423.931" y="277.414" width="5.51724" height="5.51724" fill="white"/>
<rect x="335.655" y="282.931" width="5.51724" height="5.51724" fill="white"/>
<rect x="341.172" y="282.931" width="5.51724" height="5.51724" fill="white"/>
<rect x="346.69" y="282.931" width="5.51724" height="5.51724" fill="white"/>
<rect x="357.724" y="282.931" width="5.51724" height="5.51724" fill="white"/>
<rect x="363.241" y="282.931" width="5.51724" height="5.51724" fill="white"/>
<rect x="379.793" y="282.931" width="5.51724" height="5.51724" fill="white"/>
<rect x="385.31" y="282.931" width="5.51724" height="5.51724" fill="white"/>
<rect x="401.862" y="282.931" width="5.51724" height="5.51724" fill="white"/>
<rect x="412.897" y="282.931" width="5.51724" height="5.51724" fill="white"/>
<rect x="423.931" y="282.931" width="5.51724" height="5.51724" fill="white"/>
<rect x="429.448" y="282.931" width="5.51724" height="5.51724" fill="white"/>
<rect x="434.966" y="282.931" width="5.51724" height="5.51724" fill="white"/>
<rect x="335.655" y="288.448" width="5.51724" height="5.51724" fill="white"/>
<rect x="341.172" y="288.448" width="5.51724" height="5.51724" fill="white"/>
<rect x="368.759" y="288.448" width="5.51724" height="5.51724" fill="white"/>
<rect x="374.276" y="288.448" width="5.51724" height="5.51724" fill="white"/>
<rect x="379.793" y="288.448" width="5.51724" height="5.51724" fill="white"/>
<rect x="390.828" y="288.448" width="5.51724" height="5.51724" fill="white"/>
<rect x="401.862" y="288.448" width="5.51724" height="5.51724" fill="white"/>
<rect x="407.379" y="288.448" width="5.51724" height="5.51724" fill="white"/>
<rect x="412.897" y="288.448" width="5.51724" height="5.51724" fill="white"/>
<rect x="418.414" y="288.448" width="5.51724" height="5.51724" fill="white"/>
<rect x="423.931" y="288.448" width="5.51724" height="5.51724" fill="white"/>
<rect x="429.448" y="288.448" width="5.51724" height="5.51724" fill="white"/>
<rect x="434.966" y="288.448" width="5.51724" height="5.51724" fill="white"/>
<rect x="352.207" y="293.966" width="5.51724" height="5.51724" fill="white"/>
<rect x="368.759" y="293.966" width="5.51724" height="5.51724" fill="white"/>
<rect x="390.828" y="293.966" width="5.51724" height="5.51724" fill="white"/>
<rect x="401.862" y="293.966" width="5.51724" height="5.51724" fill="white"/>
<rect x="412.897" y="293.966" width="5.51724" height="5.51724" fill="white"/>
<rect x="423.931" y="293.966" width="5.51724" height="5.51724" fill="white"/>
<rect x="429.448" y="293.966" width="5.51724" height="5.51724" fill="white"/>
<rect x="440.483" y="293.966" width="5.51724" height="5.51724" fill="white"/>
<rect x="330.138" y="299.483" width="5.51724" height="5.51724" fill="white"/>
<rect x="335.655" y="299.483" width="5.51724" height="5.51724" fill="white"/>
<rect x="346.69" y="299.483" width="5.51724" height="5.51724" fill="white"/>
<rect x="357.724" y="299.483" width="5.51724" height="5.51724" fill="white"/>
<rect x="363.241" y="299.483" width="5.51724" height="5.51724" fill="white"/>
<rect x="379.793" y="299.483" width="5.51724" height="5.51724" fill="white"/>
<rect x="385.31" y="299.483" width="5.51724" height="5.51724" fill="white"/>
<rect x="390.828" y="299.483" width="5.51724" height="5.51724" fill="white"/>
<rect x="401.862" y="299.483" width="5.51724" height="5.51724" fill="white"/>
<rect x="407.379" y="299.483" width="5.51724" height="5.51724" fill="white"/>
<rect x="412.897" y="299.483" width="5.51724" height="5.51724" fill="white"/>
<rect x="418.414" y="299.483" width="5.51724" height="5.51724" fill="white"/>
<rect x="423.931" y="299.483" width="5.51724" height="5.51724" fill="white"/>
<rect x="429.448" y="299.483" width="5.51724" height="5.51724" fill="white"/>
<path fill-rule="evenodd" clip-rule="evenodd" d="M291.793 145H318.828H324.621V150.793V177.828V183.621H318.828H291.793H286V177.828V150.793V145H291.793ZM291.793 177.828H318.828V150.793H291.793V177.828Z" fill="white"/>
<path fill-rule="evenodd" clip-rule="evenodd" d="M413.172 145H440.207H446V150.793V177.828V183.621H440.207H413.172H407.379V177.828V150.793V145H413.172ZM413.172 177.828H440.207V150.793H413.172V177.828Z" fill="white"/>
<path fill-rule="evenodd" clip-rule="evenodd" d="M291.793 266.379H318.828H324.621V272.172V299.207V305H318.828H291.793H286V299.207V272.172V266.379H291.793ZM291.793 299.207H318.828V272.172H291.793V299.207Z" fill="white"/>
<rect x="297.034" y="156.034" width="16.5517" height="16.5517" fill="white"/>
<rect x="418.414" y="156.034" width="16.5517" height="16.5517" fill="white"/>
<rect x="297.034" y="277.414" width="16.5517" height="16.5517" fill="white"/>
</svg>
